<svg width="174" height="38" viewBox="0 0 174 38" fill="none" xmlns="http://www.w3.org/2000/svg">
<g clip-path="url(#clip0_59_9)">
<path fill-rule="evenodd" clip-rule="evenodd" d="M9.01069 35.8916C9.84179 36.2973 10.7084 36.5412 11.5809 36.6536C10.978 35.9659 10.4116 35.1988 9.84776 34.3008C8.66463 32.1798 8.24181 30.4642 8.15194 28.2061C8.17531 23.8974 9.58263 20.6608 11.489 17.152C13.3054 13.976 15.2865 11.236 17.4654 8.33863C18.1146 7.3419 18.8967 6.35705 19.5668 5.35255C19.7476 5.08185 19.8791 4.76985 20.033 4.48625C20.1176 4.26323 20.0878 4.33007 20.1666 4.57741C20.294 4.6231 20.1307 4.31107 19.8509 3.82126C14.014 1.36409 6.96533 6.17646 3.93039 14.7809C0.825491 23.5915 3.10018 33.0375 9.01069 35.8916ZM12.0614 36.6948C11.4364 35.9174 10.9023 35.065 10.4065 34.047C9.48478 32.0034 9.23845 30.4227 9.3744 28.3657C9.89432 24.43 11.5705 21.602 13.7126 18.5559C15.9332 15.8679 18.0042 13.0198 20.5409 10.6151C21.4158 9.60614 22.2985 8.59287 23.1031 7.52398C23.1679 7.4177 23.3925 7.05846 23.5818 6.72544C26.9048 10.9296 27.769 18.2174 25.3407 25.1083C22.7487 32.4478 17.2447 37.0226 12.0614 36.6948Z" fill="#C95E20"/>
</g>
<g clip-path="url(#clip1_59_9)">
<path fill-rule="evenodd" clip-rule="evenodd" d="M47.1455 25.2781C46.8619 25.7311 46.5127 26.1093 46.1214 26.4202C46.2096 25.8848 46.2563 25.3181 46.2626 24.6835C46.2053 23.2273 45.8988 22.2035 45.268 20.9907C43.9696 18.7327 42.3173 17.4375 40.3407 16.1433C38.5074 14.9981 36.7241 14.1294 34.7974 13.2352C34.1835 12.8987 33.5084 12.6067 32.882 12.272C32.713 12.1819 32.5558 12.0559 32.3961 11.9512C32.2883 11.8584 32.3228 11.8849 32.3583 12.0376C32.3099 12.0984 32.2962 11.8873 32.2862 11.5491C34.3949 8.57347 39.2654 9.06919 43.3137 12.7162C47.4578 16.4513 49.1716 22.0726 47.1455 25.2781ZM45.8996 26.5805C45.9719 25.9915 45.9774 25.3894 45.9147 24.7113C45.7532 23.3712 45.401 22.4693 44.7203 21.4273C43.2915 19.5087 41.6303 18.5058 39.6771 17.5228C37.7927 16.7507 35.9333 15.8512 33.9795 15.3191C33.2521 15.0413 32.5194 14.7634 31.8083 14.4337C31.745 14.3965 31.5283 14.2725 31.3366 14.1521C30.9741 17.3206 32.7302 21.4006 35.9712 24.3219C39.426 27.4318 43.4732 28.2483 45.8996 26.5805Z" fill="#733612"/>
</g>
<path d="M75.496 12.024C75.944 12.024 76.304 12.152 76.576 12.408C76.848 12.664 76.984 13.008 76.984 13.44V22.92C76.984 24.76 76.472 26.152 75.448 27.096C74.424 28.04 72.912 28.512 70.912 28.512C69.168 28.512 67.712 28.184 66.544 27.528C65.952 27.176 65.656 26.752 65.656 26.256C65.656 25.904 65.736 25.624 65.896 25.416C66.072 25.208 66.296 25.104 66.568 25.104C66.712 25.104 66.888 25.136 67.096 25.2C67.304 25.28 67.52 25.368 67.744 25.464C68.32 25.704 68.832 25.888 69.28 26.016C69.744 26.144 70.272 26.208 70.864 26.208C72.96 26.208 74.008 25.184 74.008 23.136V21.6C73.656 22.256 73.144 22.768 72.472 23.136C71.8 23.488 71.032 23.664 70.168 23.664C69.144 23.664 68.232 23.424 67.432 22.944C66.648 22.448 66.032 21.76 65.584 20.88C65.136 20 64.912 18.984 64.912 17.832C64.912 16.68 65.128 15.664 65.56 14.784C66.008 13.888 66.632 13.2 67.432 12.72C68.232 12.224 69.144 11.976 70.168 11.976C71.032 11.976 71.8 12.16 72.472 12.528C73.144 12.88 73.656 13.384 74.008 14.04V13.416C74.008 13 74.144 12.664 74.416 12.408C74.688 12.152 75.048 12.024 75.496 12.024ZM70.96 21.336C71.92 21.336 72.664 21.024 73.192 20.4C73.736 19.776 74.008 18.92 74.008 17.832C74.008 16.728 73.736 15.864 73.192 15.24C72.664 14.616 71.92 14.304 70.96 14.304C70.016 14.304 69.272 14.616 68.728 15.24C68.184 15.864 67.912 16.728 67.912 17.832C67.912 18.92 68.184 19.776 68.728 20.4C69.272 21.024 70.016 21.336 70.96 21.336ZM89.3793 20.784C89.6513 20.784 89.8673 20.888 90.0273 21.096C90.2033 21.304 90.2913 21.584 90.2913 21.936C90.2913 22.432 89.9953 22.848 89.4033 23.184C88.8593 23.488 88.2433 23.736 87.5553 23.928C86.8673 24.104 86.2113 24.192 85.5872 24.192C83.6993 24.192 82.2033 23.648 81.0993 22.56C79.9953 21.472 79.4433 19.984 79.4433 18.096C79.4433 16.896 79.6833 15.832 80.1633 14.904C80.6433 13.976 81.3153 13.256 82.1793 12.744C83.0593 12.232 84.0513 11.976 85.1553 11.976C86.2113 11.976 87.1313 12.208 87.9153 12.672C88.6993 13.136 89.3073 13.792 89.7393 14.64C90.1713 15.488 90.3873 16.488 90.3873 17.64C90.3873 18.328 90.0833 18.672 89.4753 18.672H82.3953C82.4913 19.776 82.8033 20.592 83.3313 21.12C83.8593 21.632 84.6273 21.888 85.6353 21.888C86.1473 21.888 86.5953 21.824 86.9793 21.696C87.3793 21.568 87.8273 21.392 88.3233 21.168C88.8033 20.912 89.1553 20.784 89.3793 20.784ZM85.2273 14.088C84.4113 14.088 83.7553 14.344 83.2593 14.856C82.7793 15.368 82.4913 16.104 82.3953 17.064H87.8193C87.7873 16.088 87.5473 15.352 87.0993 14.856C86.6513 14.344 86.0273 14.088 85.2273 14.088ZM98.7732 21.912C99.5732 21.96 99.9732 22.32 99.9732 22.992C99.9732 23.376 99.8132 23.672 99.4932 23.88C99.1892 24.072 98.7492 24.152 98.1732 24.12L97.5252 24.072C94.8372 23.88 93.4932 22.44 93.4932 19.752V14.52H92.2932C91.8612 14.52 91.5252 14.424 91.2852 14.232C91.0612 14.04 90.9492 13.76 90.9492 13.392C90.9492 13.024 91.0612 12.744 91.2852 12.552C91.5252 12.36 91.8612 12.264 92.2932 12.264H93.4932V10.056C93.4932 9.624 93.6292 9.28 93.9012 9.024C94.1732 8.768 94.5412 8.64 95.0052 8.64C95.4532 8.64 95.8132 8.768 96.0852 9.024C96.3572 9.28 96.4932 9.624 96.4932 10.056V12.264H98.5332C98.9652 12.264 99.2932 12.36 99.5172 12.552C99.7572 12.744 99.8772 13.024 99.8772 13.392C99.8772 13.76 99.7572 14.04 99.5172 14.232C99.2932 14.424 98.9652 14.52 98.5332 14.52H96.4932V19.968C96.4932 21.152 97.0372 21.784 98.1252 21.864L98.7732 21.912ZM103.421 24.144C102.909 24.144 102.485 23.976 102.149 23.64C101.813 23.288 101.645 22.856 101.645 22.344C101.645 21.832 101.813 21.408 102.149 21.072C102.485 20.72 102.909 20.544 103.421 20.544C103.933 20.544 104.357 20.72 104.693 21.072C105.029 21.408 105.197 21.832 105.197 22.344C105.197 22.856 105.029 23.288 104.693 23.64C104.357 23.976 103.933 24.144 103.421 24.144ZM112.862 24.192C111.694 24.192 110.662 23.944 109.766 23.448C108.886 22.952 108.206 22.248 107.726 21.336C107.246 20.424 107.006 19.36 107.006 18.144C107.006 16.928 107.254 15.856 107.75 14.928C108.262 13.984 108.974 13.256 109.886 12.744C110.798 12.232 111.846 11.976 113.03 11.976C113.654 11.976 114.278 12.064 114.902 12.24C115.542 12.416 116.102 12.656 116.582 12.96C117.094 13.296 117.35 13.72 117.35 14.232C117.35 14.584 117.262 14.872 117.086 15.096C116.926 15.304 116.71 15.408 116.438 15.408C116.262 15.408 116.078 15.368 115.886 15.288C115.694 15.208 115.502 15.112 115.31 15C114.958 14.792 114.622 14.632 114.302 14.52C113.982 14.392 113.614 14.328 113.198 14.328C112.206 14.328 111.438 14.656 110.894 15.312C110.366 15.952 110.102 16.88 110.102 18.096C110.102 19.296 110.366 20.224 110.894 20.88C111.438 21.52 112.206 21.84 113.198 21.84C113.598 21.84 113.95 21.784 114.254 21.672C114.574 21.544 114.926 21.376 115.31 21.168C115.55 21.024 115.758 20.92 115.934 20.856C116.11 20.776 116.286 20.736 116.462 20.736C116.718 20.736 116.934 20.848 117.11 21.072C117.286 21.296 117.374 21.576 117.374 21.912C117.374 22.184 117.31 22.424 117.182 22.632C117.07 22.824 116.878 23 116.606 23.16C116.11 23.48 115.534 23.736 114.878 23.928C114.222 24.104 113.55 24.192 112.862 24.192ZM124.725 24.192C123.525 24.192 122.469 23.944 121.557 23.448C120.661 22.952 119.965 22.24 119.469 21.312C118.973 20.384 118.725 19.304 118.725 18.072C118.725 16.84 118.973 15.768 119.469 14.856C119.965 13.928 120.661 13.216 121.557 12.72C122.469 12.224 123.525 11.976 124.725 11.976C125.925 11.976 126.973 12.224 127.869 12.72C128.781 13.216 129.477 13.928 129.957 14.856C130.453 15.768 130.701 16.84 130.701 18.072C130.701 19.304 130.453 20.384 129.957 21.312C129.477 22.24 128.781 22.952 127.869 23.448C126.973 23.944 125.925 24.192 124.725 24.192ZM124.701 21.864C125.677 21.864 126.421 21.544 126.933 20.904C127.445 20.264 127.701 19.32 127.701 18.072C127.701 16.84 127.445 15.904 126.933 15.264C126.421 14.608 125.685 14.28 124.725 14.28C123.765 14.28 123.021 14.608 122.493 15.264C121.981 15.904 121.725 16.84 121.725 18.072C121.725 19.32 121.981 20.264 122.493 20.904C123.005 21.544 123.741 21.864 124.701 21.864ZM139.035 9.312C138.299 9.36 137.763 9.584 137.427 9.984C137.091 10.384 136.923 10.96 136.923 11.712V12.264H138.963C139.859 12.264 140.307 12.64 140.307 13.392C140.307 14.144 139.859 14.52 138.963 14.52H136.923V22.704C136.923 23.168 136.779 23.52 136.491 23.76C136.219 24 135.867 24.12 135.435 24.12C135.003 24.12 134.643 24 134.355 23.76C134.067 23.52 133.923 23.168 133.923 22.704V14.52H132.723C131.827 14.52 131.379 14.144 131.379 13.392C131.379 12.64 131.827 12.264 132.723 12.264H133.923V12.096C133.923 10.592 134.315 9.416 135.099 8.568C135.899 7.704 137.019 7.216 138.459 7.104L139.083 7.056C139.723 7.008 140.171 7.08 140.427 7.272C140.699 7.448 140.835 7.728 140.835 8.112C140.835 8.8 140.443 9.184 139.659 9.264L139.035 9.312ZM147.426 9.312C146.69 9.36 146.154 9.584 145.818 9.984C145.482 10.384 145.314 10.96 145.314 11.712V12.264H147.354C148.25 12.264 148.698 12.64 148.698 13.392C148.698 14.144 148.25 14.52 147.354 14.52H145.314V22.704C145.314 23.168 145.17 23.52 144.882 23.76C144.61 24 144.258 24.12 143.826 24.12C143.394 24.12 143.034 24 142.746 23.76C142.458 23.52 142.314 23.168 142.314 22.704V14.52H141.114C140.218 14.52 139.769 14.144 139.769 13.392C139.769 12.64 140.218 12.264 141.114 12.264H142.314V12.096C142.314 10.592 142.706 9.416 143.49 8.568C144.29 7.704 145.41 7.216 146.85 7.104L147.474 7.056C148.114 7.008 148.562 7.08 148.818 7.272C149.09 7.448 149.226 7.728 149.226 8.112C149.226 8.8 148.834 9.184 148.05 9.264L147.426 9.312ZM159.27 20.784C159.542 20.784 159.758 20.888 159.918 21.096C160.094 21.304 160.182 21.584 160.182 21.936C160.182 22.432 159.886 22.848 159.294 23.184C158.75 23.488 158.134 23.736 157.446 23.928C156.758 24.104 156.102 24.192 155.478 24.192C153.59 24.192 152.094 23.648 150.99 22.56C149.886 21.472 149.334 19.984 149.334 18.096C149.334 16.896 149.574 15.832 150.054 14.904C150.534 13.976 151.206 13.256 152.07 12.744C152.95 12.232 153.942 11.976 155.046 11.976C156.102 11.976 157.022 12.208 157.806 12.672C158.59 13.136 159.198 13.792 159.63 14.64C160.062 15.488 160.278 16.488 160.278 17.64C160.278 18.328 159.974 18.672 159.366 18.672H152.286C152.382 19.776 152.694 20.592 153.222 21.12C153.75 21.632 154.518 21.888 155.526 21.888C156.038 21.888 156.486 21.824 156.87 21.696C157.27 21.568 157.718 21.392 158.214 21.168C158.694 20.912 159.046 20.784 159.27 20.784ZM155.118 14.088C154.302 14.088 153.646 14.344 153.15 14.856C152.67 15.368 152.382 16.104 152.286 17.064H157.71C157.678 16.088 157.438 15.352 156.99 14.856C156.542 14.344 155.918 14.088 155.118 14.088ZM172.02 20.784C172.292 20.784 172.508 20.888 172.668 21.096C172.844 21.304 172.932 21.584 172.932 21.936C172.932 22.432 172.636 22.848 172.044 23.184C171.5 23.488 170.884 23.736 170.196 23.928C169.508 24.104 168.852 24.192 168.228 24.192C166.34 24.192 164.844 23.648 163.74 22.56C162.636 21.472 162.084 19.984 162.084 18.096C162.084 16.896 162.324 15.832 162.804 14.904C163.284 13.976 163.956 13.256 164.82 12.744C165.7 12.232 166.692 11.976 167.796 11.976C168.852 11.976 169.772 12.208 170.556 12.672C171.34 13.136 171.948 13.792 172.38 14.64C172.812 15.488 173.028 16.488 173.028 17.64C173.028 18.328 172.724 18.672 172.116 18.672H165.036C165.132 19.776 165.444 20.592 165.972 21.12C166.5 21.632 167.268 21.888 168.276 21.888C168.788 21.888 169.236 21.824 169.62 21.696C170.02 21.568 170.468 21.392 170.964 21.168C171.444 20.912 171.796 20.784 172.02 20.784ZM167.868 14.088C167.052 14.088 166.396 14.344 165.9 14.856C165.42 15.368 165.132 16.104 165.036 17.064H170.46C170.428 16.088 170.188 15.352 169.74 14.856C169.292 14.344 168.668 14.088 167.868 14.088Z" fill="#242424"/>
<defs>
<clipPath id="clip0_59_9">
<rect width="25.1124" height="32.8393" fill="white" transform="translate(0 5.34821) rotate(-7.66204)"/>
</clipPath>
<clipPath id="clip1_59_9">
<rect width="14.1972" height="19.8761" fill="white" transform="matrix(-0.924228 0.381841 0.381841 0.924228 42.4106 6.62457)"/>
</clipPath>
</defs>
</svg>
